<mxfile host="65bd71144e">
    <diagram id="o6ba107PmsPXEYTRb4lR" name="Page-1">
        <mxGraphModel dx="544" dy="638" grid="1" gridSize="10" guides="1" tooltips="1" connect="1" arrows="1" fold="1" page="1" pageScale="1" pageWidth="850" pageHeight="1100" math="0" shadow="0">
            <root>
                <mxCell id="0"/>
                <mxCell id="1" parent="0"/>
                <mxCell id="2" value="Owner" style="shape=umlLifeline;perimeter=lifelinePerimeter;whiteSpace=wrap;html=1;container=1;collapsible=0;recursiveResize=0;outlineConnect=0;" vertex="1" parent="1">
                    <mxGeometry x="120" y="80" width="100" height="600" as="geometry"/>
                </mxCell>
                <mxCell id="11" value="" style="html=1;points=[];perimeter=orthogonalPerimeter;" vertex="1" parent="2">
                    <mxGeometry x="45" y="180" width="10" height="40" as="geometry"/>
                </mxCell>
                <mxCell id="12" value="&lt;b&gt;setLocalDesc = new offer&lt;/b&gt;" style="edgeStyle=orthogonalEdgeStyle;html=1;align=left;spacingLeft=2;endArrow=block;rounded=0;entryX=1;entryY=0;" edge="1" target="11" parent="2">
                    <mxGeometry relative="1" as="geometry">
                        <mxPoint x="45" y="160" as="sourcePoint"/>
                        <Array as="points">
                            <mxPoint x="75" y="160"/>
                        </Array>
                    </mxGeometry>
                </mxCell>
                <mxCell id="19" value="" style="html=1;points=[];perimeter=orthogonalPerimeter;" vertex="1" parent="2">
                    <mxGeometry x="45" y="570" width="10" height="40" as="geometry"/>
                </mxCell>
                <mxCell id="20" value="setRemoteDesc = answer" style="edgeStyle=orthogonalEdgeStyle;html=1;align=left;spacingLeft=2;endArrow=block;rounded=0;entryX=1;entryY=0;" edge="1" target="19" parent="2">
                    <mxGeometry relative="1" as="geometry">
                        <mxPoint x="50" y="550" as="sourcePoint"/>
                        <Array as="points">
                            <mxPoint x="80" y="550"/>
                        </Array>
                    </mxGeometry>
                </mxCell>
                <mxCell id="4" value="Viewer" style="shape=umlLifeline;perimeter=lifelinePerimeter;whiteSpace=wrap;html=1;container=1;collapsible=0;recursiveResize=0;outlineConnect=0;" vertex="1" parent="1">
                    <mxGeometry x="400" y="80" width="100" height="600" as="geometry"/>
                </mxCell>
                <mxCell id="14" value="" style="html=1;points=[];perimeter=orthogonalPerimeter;" vertex="1" parent="4">
                    <mxGeometry x="45" y="340" width="10" height="40" as="geometry"/>
                </mxCell>
                <mxCell id="15" value="setRemoteDesc = offer" style="edgeStyle=orthogonalEdgeStyle;html=1;align=left;spacingLeft=2;endArrow=block;rounded=0;entryX=1;entryY=0;" edge="1" target="14" parent="4">
                    <mxGeometry relative="1" as="geometry">
                        <mxPoint x="50" y="320" as="sourcePoint"/>
                        <Array as="points">
                            <mxPoint x="80" y="320"/>
                        </Array>
                    </mxGeometry>
                </mxCell>
                <mxCell id="16" value="" style="html=1;points=[];perimeter=orthogonalPerimeter;" vertex="1" parent="4">
                    <mxGeometry x="45" y="440" width="10" height="40" as="geometry"/>
                </mxCell>
                <mxCell id="17" value="&lt;b&gt;setLocalDesc = new answer&lt;/b&gt;" style="edgeStyle=orthogonalEdgeStyle;html=1;align=left;spacingLeft=2;endArrow=block;rounded=0;entryX=1;entryY=0;" edge="1" target="16" parent="4">
                    <mxGeometry relative="1" as="geometry">
                        <mxPoint x="45" y="420" as="sourcePoint"/>
                        <Array as="points">
                            <mxPoint x="75" y="420"/>
                        </Array>
                        <mxPoint as="offset"/>
                    </mxGeometry>
                </mxCell>
                <mxCell id="8" value="offer" style="html=1;verticalAlign=bottom;startArrow=oval;startFill=1;endArrow=block;startSize=8;" edge="1" parent="1" source="4" target="2">
                    <mxGeometry width="60" relative="1" as="geometry">
                        <mxPoint x="270" y="140" as="sourcePoint"/>
                        <mxPoint x="330" y="140" as="targetPoint"/>
                        <Array as="points">
                            <mxPoint x="310" y="160"/>
                        </Array>
                    </mxGeometry>
                </mxCell>
                <mxCell id="13" value="offer" style="html=1;verticalAlign=bottom;startArrow=oval;startFill=1;endArrow=block;startSize=8;" edge="1" parent="1" source="2" target="4">
                    <mxGeometry width="60" relative="1" as="geometry">
                        <mxPoint x="220" y="390" as="sourcePoint"/>
                        <mxPoint x="280" y="390" as="targetPoint"/>
                        <Array as="points">
                            <mxPoint x="380" y="320"/>
                        </Array>
                    </mxGeometry>
                </mxCell>
                <mxCell id="18" value="answer" style="html=1;verticalAlign=bottom;startArrow=oval;startFill=1;endArrow=block;startSize=8;" edge="1" parent="1" source="4" target="2">
                    <mxGeometry width="60" relative="1" as="geometry">
                        <mxPoint x="320" y="680" as="sourcePoint"/>
                        <mxPoint x="380" y="680" as="targetPoint"/>
                        <Array as="points">
                            <mxPoint x="400" y="560"/>
                        </Array>
                    </mxGeometry>
                </mxCell>
            </root>
        </mxGraphModel>
    </diagram>
</mxfile>